<svg xmlns="http://www.w3.org/2000/svg" width="35" height="35"><path fill="none" d="M0 0h35v35H0z"/><path d="M32.326 30.407L25.02 12.03a1.55 1.55 0 00-1.4-.959h-1.479a1.55 1.55 0 00-1.4.959l-3.543 8.93a17.713 17.713 0 01-4.135-3.178c2.509-2.952 4.354-6.495 4.576-9.668h1.476a1.55 1.55 0 001.55-1.255 1.476 1.476 0 00-1.476-1.7h-6.273V3.026a1.55 1.55 0 00-1.258-1.55 1.476 1.476 0 00-1.7 1.476v2.214H4.502a1.55 1.55 0 00-1.55 1.255 1.476 1.476 0 001.476 1.7h10.259c-.221 2.214-1.7 4.945-3.616 7.454a25.167 25.167 0 01-2.362-3.616 1.55 1.55 0 00-1.624-.886 1.476 1.476 0 00-1.033 2.14 28.857 28.857 0 003.026 4.569 17.713 17.713 0 01-5.166 3.69 1.624 1.624 0 00-.959 1.7 1.476 1.476 0 001.475 1.183l.59-.148a19.484 19.484 0 006.052-4.281 20.739 20.739 0 005.019 3.764l-2.657 6.716a1.476 1.476 0 001.326 2.068 1.624 1.624 0 001.4-.959l2.878-7.159h7.676l2.878 7.159a1.624 1.624 0 001.4.959 1.476 1.476 0 001.328-2.067zm-12.1-9l2.657-6.716 2.657 6.716z" fill="#161616"/></svg>