<svg xmlns="http://www.w3.org/2000/svg" width="33" height="33"><path fill="none" d="M0 0h33v33H0z"/><path fill="none" d="M0 0h33v33H0z"/><g fill="#fff"><path d="M16.5 5.225h5.569a7.425 7.425 0 012.544.481 4.606 4.606 0 012.612 2.613 7.425 7.425 0 01.481 2.544c.069 1.444.069 1.925.069 5.569s0 4.125-.069 5.569a7.425 7.425 0 01-.481 2.544 4.606 4.606 0 01-2.612 2.613 7.425 7.425 0 01-2.544.481H10.931a7.425 7.425 0 01-2.544-.481 4.606 4.606 0 01-2.612-2.612 7.425 7.425 0 01-.481-2.544c-.069-1.444-.069-1.925-.069-5.569s0-4.125.069-5.569a7.425 7.425 0 01.481-2.544 4.606 4.606 0 012.613-2.614 7.425 7.425 0 012.544-.481H16.5m0-2.475h-5.637a12.306 12.306 0 00-3.369.619 6.875 6.875 0 00-2.406 1.718 5.844 5.844 0 00-1.582 2.407 9.969 9.969 0 00-.687 3.369c-.069 1.443-.069 1.925-.069 5.637s0 4.194.069 5.638a9.969 9.969 0 00.688 3.369 5.844 5.844 0 001.581 2.406 5.844 5.844 0 002.406 1.581 9.969 9.969 0 003.369.688h11.275a9.969 9.969 0 003.369-.687 5.844 5.844 0 002.406-1.581 6.875 6.875 0 001.65-2.406 12.306 12.306 0 00.619-3.369c.069-1.444.069-1.925.069-5.637s0-4.194-.069-5.638a12.306 12.306 0 00-.619-3.369 6.875 6.875 0 00-1.65-2.406 6.875 6.875 0 00-2.406-1.65 12.306 12.306 0 00-3.369-.619H16.5"/><path d="M16.5 9.419a7.081 7.081 0 107.081 7.081A7.081 7.081 0 0016.5 9.419m0 11.688a4.606 4.606 0 114.606-4.606 4.606 4.606 0 01-4.606 4.606m9.006-11.963a1.65 1.65 0 11-1.65-1.65 1.65 1.65 0 011.65 1.65"/></g></svg>