<svg xmlns="http://www.w3.org/2000/svg" width="35" height="35" viewBox="0 0 35 35"><rect width="35" height="35" fill="none"/><g transform="translate(2.935 1.459)"><path d="M33.368,30.925,26.062,12.548a1.55,1.55,0,0,0-1.4-.959H23.183a1.55,1.55,0,0,0-1.4.959l-3.543,8.93A17.713,17.713,0,0,1,14.105,18.3c2.509-2.952,4.354-6.495,4.576-9.668h1.476a1.55,1.55,0,0,0,1.55-1.255,1.476,1.476,0,0,0-1.476-1.7H13.958V3.544A1.55,1.55,0,0,0,12.7,1.994a1.476,1.476,0,0,0-1.7,1.476V5.684H5.544a1.55,1.55,0,0,0-1.55,1.255,1.476,1.476,0,0,0,1.476,1.7H15.729c-.221,2.214-1.7,4.945-3.616,7.454a25.167,25.167,0,0,1-2.362-3.616,1.55,1.55,0,0,0-1.624-.886,1.476,1.476,0,0,0-1.033,2.14A28.857,28.857,0,0,0,10.12,18.3a17.713,17.713,0,0,1-5.166,3.69,1.624,1.624,0,0,0-.959,1.7A1.476,1.476,0,0,0,5.47,24.873l.59-.148a19.484,19.484,0,0,0,6.052-4.281,20.739,20.739,0,0,0,5.019,3.764l-2.657,6.716A1.476,1.476,0,0,0,15.8,32.992a1.624,1.624,0,0,0,1.4-.959l2.878-7.159h7.676l2.878,7.159a1.624,1.624,0,0,0,1.4.959,1.476,1.476,0,0,0,1.328-2.067Zm-12.1-9,2.657-6.716,2.657,6.716Z" transform="translate(-3.977 -1.977)" fill="#161616"/></g></svg>