<svg xmlns="http://www.w3.org/2000/svg" width="33" height="33" viewBox="0 0 33 33"><rect width="33" height="33" fill="none"/><rect width="33" height="33" fill="none"/><g transform="translate(2.75 2.75)"><path d="M17.75,6.475h5.569a7.425,7.425,0,0,1,2.544.481,4.606,4.606,0,0,1,2.612,2.613,7.425,7.425,0,0,1,.481,2.544c.069,1.444.069,1.925.069,5.569s0,4.125-.069,5.569a7.425,7.425,0,0,1-.481,2.544,4.606,4.606,0,0,1-2.612,2.613,7.425,7.425,0,0,1-2.544.481H12.181a7.425,7.425,0,0,1-2.544-.481,4.606,4.606,0,0,1-2.612-2.612,7.425,7.425,0,0,1-.481-2.544c-.069-1.444-.069-1.925-.069-5.569s0-4.125.069-5.569a7.425,7.425,0,0,1,.481-2.544A4.606,4.606,0,0,1,9.638,6.956a7.425,7.425,0,0,1,2.544-.481H17.75M17.75,4H12.113a12.306,12.306,0,0,0-3.369.619A6.875,6.875,0,0,0,6.338,6.337,5.844,5.844,0,0,0,4.756,8.744a9.969,9.969,0,0,0-.687,3.369C4,13.556,4,14.038,4,17.75s0,4.194.069,5.638a9.969,9.969,0,0,0,.688,3.369,5.844,5.844,0,0,0,1.581,2.406,5.844,5.844,0,0,0,2.406,1.581,9.969,9.969,0,0,0,3.369.688H23.388a9.969,9.969,0,0,0,3.369-.687,5.844,5.844,0,0,0,2.406-1.581,6.875,6.875,0,0,0,1.65-2.406,12.306,12.306,0,0,0,.619-3.369c.069-1.444.069-1.925.069-5.637s0-4.194-.069-5.638a12.306,12.306,0,0,0-.619-3.369,6.875,6.875,0,0,0-1.65-2.406,6.875,6.875,0,0,0-2.406-1.65,12.306,12.306,0,0,0-3.369-.619H17.75" transform="translate(-4 -4)" fill="#fff"/><path d="M20.781,13.7a7.081,7.081,0,1,0,7.081,7.081A7.081,7.081,0,0,0,20.781,13.7m0,11.688a4.606,4.606,0,1,1,4.606-4.606,4.606,4.606,0,0,1-4.606,4.606" transform="translate(-7.031 -7.031)" fill="#fff"/><path d="M35.6,12.55a1.65,1.65,0,1,1-1.65-1.65,1.65,1.65,0,0,1,1.65,1.65" transform="translate(-12.844 -6.156)" fill="#fff"/></g></svg>